<svg xmlns="http://www.w3.org/2000/svg" width="1400" height="950" viewBox="0 0 1400 950" role="img" aria-label="Ambiance atelier créatif Linia"><defs><linearGradient id="bg" x1="0" y1="0" x2="1" y2="1"><stop stop-color="#e7ded0"/><stop offset="1" stop-color="#fbfdfc"/></linearGradient><filter id="noise"><feTurbulence baseFrequency="0.9" numOctaves="2" seed="8"/><feColorMatrix type="saturate" values="0"/><feComponentTransfer><feFuncA type="table" tableValues="0 .08"/></feComponentTransfer></filter></defs><rect width="1400" height="950" fill="url(#bg)"/><rect width="1400" height="950" filter="url(#noise)" opacity=".5"/><rect x="130" y="430" width="1140" height="250" rx="72" fill="#312922" opacity=".12" transform="rotate(-3 700 555)"/><ellipse cx="310" cy="280" rx="160" ry="115" fill="#637d8c" opacity=".28"/><ellipse cx="1050" cy="250" rx="210" ry="130" fill="#8e705a" opacity=".18"/><g fill="none" stroke-linecap="round"><path d="M250 610 C420 500 590 700 760 575 S1040 500 1165 620" stroke="#637d8c" stroke-width="24" opacity=".42"/><path d="M290 360 C455 300 600 365 755 300 C910 235 1040 275 1170 215" stroke="#8e705a" stroke-width="18" opacity=".34"/><path d="M330 690 L520 545 M470 710 L640 530 M610 720 L780 548" stroke="#fbfdfc" stroke-width="14" opacity=".62"/></g><g opacity=".78"><circle cx="900" cy="585" r="34" fill="#637d8c"/><circle cx="980" cy="575" r="26" fill="#8e705a"/><circle cx="1040" cy="610" r="42" fill="#fbfdfc" opacity=".8"/></g><g fill="#637d8c" opacity=".55"><path d="M255 190c75 24 132 72 171 143-82-10-145-50-190-121z"/><path d="M1110 735c-96-5-168-38-216-98 86-22 163-1 230 63z"/></g></svg>